<svg xmlns="http://www.w3.org/2000/svg" viewBox="0 0 124 186" role="img" aria-label="열무마켓">
  <defs>
    <linearGradient id="leaf" x1="0" x2="1" y1="0" y2="1">
      <stop offset="0" stop-color="#8fc95c" />
      <stop offset="1" stop-color="#5ba845" />
    </linearGradient>
    <linearGradient id="leafCenter" x1="0" x2="1" y1="0" y2="1">
      <stop offset="0" stop-color="#a9d870" />
      <stop offset="1" stop-color="#6fad4c" />
    </linearGradient>
    <radialGradient id="root" cx=".38" cy=".35" r=".72">
      <stop offset="0" stop-color="#ffffff" />
      <stop offset=".66" stop-color="#ffffff" />
      <stop offset="1" stop-color="#f1eadf" />
    </radialGradient>
  </defs>
  <g fill="none" stroke="#2c2a26" stroke-linecap="round" stroke-linejoin="round">
    <g transform="rotate(-45 62 90)">
      <ellipse cx="62" cy="50" rx="23" ry="40" fill="url(#leaf)" stroke-width="5.5" />
      <line x1="62" x2="62" y1="33" y2="77" stroke="#52883a" stroke-width="7" opacity=".72" />
    </g>
    <g transform="rotate(45 62 90)">
      <ellipse cx="62" cy="50" rx="23" ry="40" fill="url(#leaf)" stroke-width="5.5" />
      <line x1="62" x2="62" y1="33" y2="77" stroke="#52883a" stroke-width="7" opacity=".72" />
    </g>
    <g transform="rotate(-3 62 90)">
      <ellipse cx="62" cy="46" rx="24" ry="44" fill="url(#leafCenter)" stroke-width="5.5" />
      <line x1="62" x2="62" y1="26" y2="76" stroke="#52883a" stroke-width="7" opacity=".72" />
    </g>
    <path
      d="M31 122c0-22 12-36 31-36s31 14 31 36c0 38-11 60-31 60s-31-22-31-60z"
      fill="url(#root)"
      stroke-width="5.5"
    />
    <rect x="39" y="78" width="46" height="20" rx="12" fill="#aec95a" stroke-width="5.5" />
    <path d="M51 86c8 2 23 2 28-3" stroke="#cfe37d" stroke-width="6" opacity=".56" />
  </g>
</svg>
